<svg width="40" height="40" viewBox="0 0 40 40" fill="none" xmlns="http://www.w3.org/2000/svg">
<path d="M0 20C0 8.95431 8.95431 0 20 0V0C31.0457 0 40 8.95431 40 20V20C40 31.0457 31.0457 40 20 40V40C8.95431 40 0 31.0457 0 20V20Z" fill="white" fill-opacity="0.2"/>
<path d="M19.9997 30.6668C20.2905 30.6668 20.7148 30.4455 21.0642 30.2295C27.4317 26.1237 31.5197 21.3123 31.5197 16.4395C31.5197 12.2441 28.6232 9.33337 24.9887 9.33337C22.7257 9.33337 21.0253 10.5836 19.9997 12.4572C18.9929 10.5929 17.2717 9.33337 15.0108 9.33337C11.3763 9.33337 8.47974 12.2441 8.47974 16.4395C8.47974 21.3123 12.5677 26.1237 18.9446 30.2295C19.2846 30.4455 19.7069 30.6668 19.9997 30.6668Z" fill="white"/>
</svg>
