<svg width="40" height="40" viewBox="0 0 40 40" fill="none" xmlns="http://www.w3.org/2000/svg">
<path d="M0 20C0 8.95431 8.95431 0 20 0V0C31.0457 0 40 8.95431 40 20V20C40 31.0457 31.0457 40 20 40V40C8.95431 40 0 31.0457 0 20V20Z" fill="white" fill-opacity="0.2"/>
<path d="M21.3333 22.6667H18.6667C16.4795 22.666 14.3337 23.2631 12.4613 24.3934C10.5888 25.5237 9.06092 27.1443 8.04267 29.08C8.01386 28.7207 7.99963 28.3604 8.00001 28C8.00001 20.636 13.9693 14.6667 21.3333 14.6667V8L34.6667 18.6667L21.3333 29.3333V22.6667Z" fill="white"/>
</svg>
